<?xml version="1.0" encoding="utf-8"?>
<!-- Generator: Adobe Illustrator 22.1.0, SVG Export Plug-In . SVG Version: 6.00 Build 0)  -->
<svg version="1.1" id="Layer_14" xmlns="http://www.w3.org/2000/svg" xmlns:xlink="http://www.w3.org/1999/xlink" x="0px" y="0px"
	 viewBox="0 0 870 754.7" style="enable-background:new 0 0 870 754.7;" xml:space="preserve">
<style type="text/css">
	.st0{clip-path:url(#SVGID_2_);}
	.st1{fill:#313FD8;}
	.st2{fill:#6E7DFF;}
	.st3{fill:#626FE2;}
	.st4{clip-path:url(#SVGID_4_);}
	.st5{fill:#E26A17;}
	.st6{fill:#FF8621;}
	.st7{fill:#FFBD00;}
	.st8{fill:#8D96E9;}
</style>
<g id="HOMBRE_SENTADO">
	<g>
		<defs>
			<rect id="SVGID_1_" x="17.4" y="35" width="884.3" height="677.6"/>
		</defs>
		<clipPath id="SVGID_2_">
			<use xlink:href="#SVGID_1_"  style="overflow:visible;"/>
		</clipPath>
		<g class="st0">
			<path class="st1" d="M701.9,684.8c0,0-93.8-287.3-124.3-304.8c-30.5-17.6-140.7-44.6-140.7-44.6s-7.4-10.9-13.2-16.7c0,0,0,0,0,0
				c13.1,1.6,61.7,6.8,70.1-3.1c9.7-11.4,0.6-211.3-0.8-236c0,0,22-11.8,25.3-26.1c0,0-64.2,10.3-126.1,7.9
				c-32.3-1.3-58.8,10.4-62,31c-3.1,19.4-0.7,143.3-26.1,188.6c-1.4,2.5-4.3,7.9-7.9,14.6c-5.1-0.7-8.2-1.2-8.2-1.2l-19.9,37.5
				c-49.2,14.1-172.4,75-185.7,93.8C69.1,444.4-53,698.7,17.3,730.3c70.4,31.7,122.9-56.1,122.9-56.1"/>
			<path class="st2" d="M493.8,315.6c-4.8,5.7-23.2,6.3-40.3,5.6c9.1-3.7,29.6-9.4,30.8-12.4c1.8-4.7-24.1-221.1-24.1-221.1
				c19.6-2.1,32.9-8.1,32.9-8.1C494.3,104.3,503.4,304.2,493.8,315.6z"/>
			<path class="st3" d="M305,302.6l78,11.1c-19.5-11.1-64.2-22.6-82.1-26.9c-1.3,2.5-2.9,5.5-4.7,8.8c-5.1-0.7-8.2-1.2-8.2-1.2
				l-19.9,37.5c-49.2,14.1-172.4,75-185.7,93.8C70,443.2-36.9,665.3,5.6,720.9c0.7,0.8,1.3,1.6,2,2.4l0,0
				c-15.3-81.8,64.4-256.3,90.4-285.6c18.8-21.1,188.8-94.2,188.8-94.2L305,302.6z"/>
			<path class="st2" d="M577.6,379.9c-30.5-17.6-140.7-44.6-140.7-44.6s-7.4-10.9-13.2-16.8l-13.3-3.1l18.5,31.9
				c0,0,140.8,41.4,145.9,47.8c5.1,6.4,164.4,405.5,164.4,405.5c-3.4-8.4-20.5-79.1-22.2-88.5c-1.8-10.5-93.5-253.3-120.2-304.7
				C592.3,398.7,586.7,385.2,577.6,379.9z"/>
		</g>
	</g>
	<g>
		<defs>
			<rect id="SVGID_3_" x="-0.5" y="476.8" width="952.2" height="277.9"/>
		</defs>
		<clipPath id="SVGID_4_">
			<use xlink:href="#SVGID_3_"  style="overflow:visible;"/>
		</clipPath>
		<g class="st4">
			<polygon class="st3" points="-307.8,533.3 -298.8,614.3 800,652.6 791,562.2 			"/>
			<polygon class="st8" points="791,562.2 813.2,554.7 820.8,635.6 800,652.6 			"/>
			<polygon class="st8" points="-307.8,533.3 -287.4,524.4 813.2,554.7 791,562.2 			"/>
			<polygon class="st3" points="-299.3,641.6 -290.3,722.5 808.5,760.8 799.5,670.4 			"/>
			<polygon class="st8" points="799.5,670.4 821.7,662.9 829.3,743.9 808.5,760.8 			"/>
			<polygon class="st8" points="-299.3,641.6 -278.9,632.6 821.7,662.9 799.5,670.4 			"/>
			<polygon class="st1" points="704.5,869.9 677.7,559.2 641.5,558.3 673,869.9 			"/>
			<polygon class="st8" points="703,852.3 710.8,852.8 687.4,556.6 679,559.2 			"/>
		</g>
	</g>
	<polygon class="st1" points="25.1,734 24.4,753.9 611.1,753.9 	"/>
</g>
</svg>
